<svg width="120" height="120" viewBox="0 0 120 120" fill="none" xmlns="http://www.w3.org/2000/svg">
<path fill-rule="evenodd" clip-rule="evenodd" d="M60 3.48129C28.7856 3.48129 3.48129 28.7856 3.48129 60C3.48129 91.2144 28.7856 116.519 60 116.519C91.2144 116.519 116.519 91.2144 116.519 60C116.519 28.7856 91.2144 3.48129 60 3.48129ZM0 60C0 26.8629 26.8629 0 60 0C93.1371 0 120 26.8629 120 60C120 93.1371 93.1371 120 60 120C26.8629 120 0 93.1371 0 60Z" fill="white"/>
<path fill-rule="evenodd" clip-rule="evenodd" d="M60.0008 20.3211C38.0869 20.3211 20.3221 38.0859 20.3221 59.9998C20.3221 81.9138 38.0869 99.6785 60.0008 99.6785C81.9148 99.6785 99.6795 81.9138 99.6795 59.9998C99.6795 38.0859 81.9148 20.3211 60.0008 20.3211ZM16.8408 59.9998C16.8408 36.1632 36.1642 16.8398 60.0008 16.8398C83.8374 16.8398 103.161 36.1632 103.161 59.9998C103.161 83.8364 83.8374 103.16 60.0008 103.16C36.1642 103.16 16.8408 83.8364 16.8408 59.9998Z" fill="white"/>
<path d="M106.414 82.7292L107.314 80.4788L106.095 79.9957L105.25 82.12L103.647 81.4778L104.498 79.3535L103.241 78.8541L102.341 81.1045L100.738 80.4623L102.39 76.3182L109.669 79.2218L108.017 83.3659L106.414 82.7292Z" fill="white"/>
<path d="M106.058 87.159L100.706 84.2059L99.5261 86.3466L98.0166 85.5123L100.185 81.5877L107.046 85.3751L106.058 87.159Z" fill="white"/>
<path d="M95.5906 91.0835L97.3799 88.7837L96.5895 87.5761L97.9234 85.8636L102.282 93.0321L100.915 94.7886L92.8955 92.3295L94.2293 90.617L95.5906 91.0835ZM97.1494 91.605L99.7731 92.4832L98.2746 90.1614L97.1494 91.605Z" fill="white"/>
<path d="M93.6089 102.319L89.58 98.9656L91.1498 104.059L89.827 104.998L85.5456 101.825L87.368 106.738L85.628 107.967L83.0098 100.217L84.7058 99.015L88.5865 101.836L87.2198 97.2366L88.9158 96.0345L95.3543 101.079L93.6089 102.319Z" fill="white"/>
<path d="M81.9833 109.433L78.5967 102.363L80.4355 101.485L83.8221 108.554L81.9833 109.433Z" fill="white"/>
<path d="M76.5436 109.729L74.4688 103.982L76.3844 103.291L78.4592 109.038L80.0345 108.467L80.6218 110.092L75.5556 111.919L74.9682 110.295L76.5436 109.729Z" fill="white"/>
<path d="M71.2139 109.894L68.3267 110.454L68.9031 113.423L66.9051 113.813L65.4121 106.117L67.4101 105.728L68.0248 108.9L70.912 108.34L70.2972 105.168L72.2952 104.778L73.7882 112.474L71.7902 112.863L71.2139 109.894Z" fill="white"/>
<path d="M57.436 112.309L57.6611 106.2L59.6975 106.277L59.4724 112.386L61.1466 112.446L61.0862 114.17L55.707 113.972L55.7729 112.249L57.436 112.309Z" fill="white"/>
<path d="M52.4419 110.476L49.5548 109.922L48.9839 112.891L46.9805 112.507L48.457 104.811L50.4604 105.196L49.8512 108.368L52.7383 108.923L53.3476 105.75L55.3511 106.134L53.8745 113.83L51.8711 113.445L52.4419 110.476Z" fill="white"/>
<path d="M40.8877 108.56L43.1656 109.389L43.6157 108.159L41.4641 107.38L42.0514 105.761L44.203 106.54L44.6641 105.272L42.3862 104.443L42.9735 102.824L47.167 104.35L44.4885 111.716L40.2949 110.19L40.8877 108.56Z" fill="white"/>
<path d="M31.7869 103.625L33.8782 104.91L34.5643 103.796L32.6596 102.626L33.5653 101.155L35.47 102.325L37.0837 99.7064L38.8182 100.777L34.7125 107.451L30.8867 105.096L31.7869 103.625Z" fill="white"/>
<path d="M27.709 102.676L31.5183 97.8949L29.6081 96.3745L30.684 95.0242L34.1859 97.8181L29.3008 103.949L27.709 102.676Z" fill="white"/>
<path d="M27.5002 97.5877C27.072 97.9775 26.5945 98.2629 26.0786 98.444C25.5626 98.6251 25.0357 98.6965 24.5032 98.6691C23.9708 98.6416 23.4494 98.4989 22.9334 98.2519C22.4174 97.9994 21.9509 97.6426 21.5173 97.1706C21.0946 96.704 20.7818 96.2045 20.5787 95.6666C20.3756 95.1287 20.2823 94.5908 20.2987 94.0584C20.3152 93.5204 20.4359 93.0045 20.6665 92.5105C20.8915 92.011 21.2209 91.5664 21.6545 91.1767C22.0826 90.787 22.5602 90.5015 23.0761 90.3204C23.5921 90.1393 24.119 90.0679 24.6514 90.1009C25.1893 90.1338 25.7108 90.2765 26.2268 90.529C26.7427 90.7815 27.2148 91.1383 27.6374 91.6048C28.0655 92.0769 28.3839 92.5818 28.5815 93.1143C28.7846 93.6467 28.8724 94.1846 28.8505 94.717C28.8285 95.2495 28.7077 95.7654 28.4772 96.2649C28.2631 96.7534 27.9338 97.198 27.5002 97.5877ZM26.0676 96.0124C26.2981 95.8038 26.4738 95.5678 26.589 95.2989C26.7043 95.0354 26.7647 94.7609 26.7756 94.481C26.7866 94.2011 26.7372 93.9266 26.6384 93.6577C26.5396 93.3887 26.3859 93.1417 26.1883 92.9222C25.9852 92.7026 25.7602 92.527 25.4967 92.4062C25.2387 92.28 24.9698 92.2086 24.6844 92.1866C24.4044 92.1647 24.1245 92.2031 23.8501 92.2909C23.5756 92.3788 23.3231 92.5324 23.0926 92.741C22.8621 92.9496 22.6864 93.1856 22.5711 93.4546C22.4559 93.7181 22.3955 93.9925 22.39 94.2724C22.3845 94.5524 22.4339 94.8323 22.5327 95.1013C22.6315 95.3702 22.7852 95.6172 22.9828 95.8368C23.1859 96.0563 23.4109 96.232 23.6744 96.3527C23.9324 96.479 24.2013 96.5503 24.4813 96.5668C24.7612 96.5833 25.0357 96.5503 25.3101 96.457C25.5846 96.3747 25.837 96.221 26.0676 96.0124Z" fill="white"/>
<path d="M16.5333 90.6168L20.2987 86.9722L15.0678 87.9876L14.2774 86.5715L17.8891 82.6524L12.8118 83.9368L11.7744 82.0761L19.7553 80.2977L20.7707 82.1145L17.5542 85.6713L22.2692 84.8041L23.2847 86.6209L17.5762 92.4831L16.5333 90.6168Z" fill="white"/>
<path d="M12.4108 69.534L8.77168 73.0798L8.35452 70.6702L10.2756 68.8533L7.86052 67.794L7.44336 65.3843L12.065 67.514L15.8798 66.8554L16.2311 68.8753L12.4108 69.534Z" fill="white"/>
<path d="M11.4071 64.5614C10.8089 64.5724 10.249 64.4736 9.72754 64.265C9.20609 64.0564 8.75051 63.7655 8.3608 63.3868C7.97108 63.008 7.6637 62.5579 7.43317 62.0255C7.20812 61.4931 7.08737 60.9113 7.08188 60.2691C7.0709 59.6323 7.1697 59.045 7.37828 58.5071C7.58686 57.9692 7.88326 57.5026 8.262 57.1074C8.64073 56.7122 9.08533 56.4049 9.60129 56.1798C10.1172 55.9548 10.6716 55.8395 11.2699 55.8285C11.8682 55.8175 12.4281 55.9163 12.9495 56.1249C13.471 56.3335 13.9266 56.6299 14.3163 57.0086C14.706 57.3874 15.0134 57.8484 15.2439 58.3809C15.4744 58.9133 15.5897 59.5006 15.5952 60.1318C15.6062 60.774 15.5074 61.3613 15.2988 61.8993C15.0902 62.4372 14.7938 62.8982 14.4151 63.288C14.0363 63.6777 13.5917 63.9851 13.0758 64.2101C12.5598 64.4351 12.0054 64.5504 11.4071 64.5614ZM11.3742 62.4152C11.6926 62.4097 11.989 62.3439 12.2579 62.2231C12.5269 62.1024 12.7574 61.9377 12.955 61.7291C13.1526 61.526 13.3008 61.2845 13.4106 61.0155C13.5149 60.7466 13.5698 60.4612 13.5643 60.1593C13.5588 59.8574 13.4984 59.5775 13.3832 59.3085C13.2679 59.0395 13.1087 58.809 12.9056 58.6059C12.7025 58.4028 12.4665 58.2436 12.1921 58.1284C11.9176 58.0131 11.6212 57.9582 11.3029 57.9637C10.9845 57.9692 10.6881 58.0351 10.4191 58.1558C10.1502 58.2766 9.91965 58.4467 9.72205 58.6553C9.52445 58.8639 9.37624 59.1054 9.26647 59.3744C9.16218 59.6433 9.10729 59.9287 9.11278 60.2306C9.11827 60.5325 9.17864 60.8125 9.29391 61.0814C9.40918 61.3504 9.56836 61.5809 9.77145 61.7785C9.97454 61.9761 10.2106 62.1353 10.485 62.2506C10.754 62.3658 11.0504 62.4207 11.3742 62.4152Z" fill="white"/>
<path d="M11.7587 50.2133L12.5162 46.2173C12.9388 46.2997 13.312 46.3875 13.6524 46.4863C13.9872 46.5851 14.2946 46.7168 14.569 46.8705C14.9532 47.0956 15.2826 47.359 15.557 47.6664C15.8315 47.9738 16.04 48.3141 16.1937 48.6874C16.3419 49.0606 16.4407 49.4558 16.4737 49.873C16.5121 50.2901 16.4901 50.7183 16.4023 51.1574C16.287 51.7612 16.0839 52.2936 15.7875 52.7492C15.4911 53.2047 15.1234 53.578 14.6898 53.8689C14.2561 54.1543 13.7621 54.3519 13.2078 54.4507C12.6534 54.5495 12.0661 54.544 11.4458 54.4233C10.8311 54.308 10.2822 54.0994 9.80463 53.8085C9.32709 53.5176 8.93738 53.1553 8.64098 52.7272C8.34458 52.2991 8.14149 51.8106 8.0372 51.2672C7.93291 50.7237 7.9384 50.1364 8.05366 49.5162C8.20735 48.7093 8.52022 48.0342 8.99227 47.4908C9.46431 46.9474 10.112 46.5686 10.9244 46.3546L11.369 48.4184C10.9024 48.5117 10.5456 48.6874 10.3041 48.9344C10.0626 49.1814 9.90343 49.4887 9.83756 49.851C9.78267 50.1529 9.78816 50.4383 9.85403 50.7073C9.91989 50.9762 10.0461 51.2177 10.2273 51.4318C10.4084 51.6459 10.6389 51.8325 10.9189 51.9917C11.1988 52.1454 11.5281 52.2606 11.9014 52.332C12.2362 52.3979 12.5601 52.4143 12.862 52.3814C13.1638 52.3485 13.4383 52.2716 13.6798 52.1399C13.9213 52.0082 14.1244 51.827 14.2891 51.5965C14.4537 51.366 14.569 51.0805 14.6294 50.7457C14.6678 50.5481 14.6788 50.3505 14.6678 50.1584C14.6568 49.9663 14.6129 49.7851 14.5416 49.6205C14.4702 49.4558 14.3604 49.3076 14.2177 49.1814C14.075 49.0551 13.8884 48.9508 13.6688 48.874L13.356 50.5261L11.7587 50.2133Z" fill="white"/>
<path d="M17.6157 41.3981L16.5728 44.1371L17.7145 45.0757L16.9351 47.1176L10.4746 41.4366L11.2705 39.3453L19.8716 39.4111L19.0922 41.453L17.6157 41.3981ZM15.9361 41.3378L13.0983 41.2389L15.2774 43.0558L15.9361 41.3378Z" fill="white"/>
<path d="M15.2324 31.3645L16.9614 28.8451C17.3731 28.2468 17.8287 27.8955 18.3391 27.7857C18.8441 27.676 19.3766 27.8132 19.9254 28.1919C20.2603 28.4225 20.4963 28.6695 20.639 28.9384C20.7762 29.2074 20.8421 29.5147 20.8311 29.8605C21.0452 29.652 21.2592 29.4928 21.4678 29.394C21.6819 29.2897 21.896 29.2348 22.11 29.2238C22.3241 29.2129 22.5327 29.2458 22.7413 29.3226C22.9498 29.3995 23.1529 29.5038 23.3505 29.641C23.6634 29.8551 23.8994 30.0966 24.0696 30.371C24.2397 30.6455 24.3385 30.9309 24.3715 31.2383C24.4044 31.5456 24.366 31.864 24.2562 32.1933C24.1464 32.5282 23.9763 32.863 23.7402 33.2088L21.874 35.9258L15.2324 31.3645ZM19.0033 31.4633L19.2174 31.1504C19.5796 30.6235 19.5467 30.2118 19.1186 29.9154C18.6904 29.619 18.2952 29.7398 17.9275 30.2667L17.7134 30.5796L19.0033 31.4633ZM21.6984 33.3186L21.9509 32.9453C22.2418 32.5227 22.3955 32.1769 22.4119 31.9189C22.4284 31.6609 22.3131 31.4414 22.0661 31.2712C21.8191 31.101 21.5776 31.0681 21.3416 31.1779C21.1056 31.2877 20.8366 31.5511 20.5457 31.9793L20.2932 32.3525L21.6984 33.3186Z" fill="white"/>
<path d="M24.0591 26.5779L19.0312 25.8369L20.6944 24.0421L23.3071 24.4647L22.6814 21.9014L24.3445 20.1065L25.4533 25.074L28.2911 27.7032L26.8969 29.2071L24.0591 26.5779Z" fill="white"/>
<path d="M33.4342 15.4685L31.4308 16.8517L32.1937 17.9605L34.0874 16.6541L35.0974 18.1142L33.2037 19.4206L33.9941 20.5622L36.003 19.179L37.013 20.6391L33.319 23.1859L28.7412 16.5498L32.4353 14.003L33.4342 15.4685Z" fill="white"/>
<path d="M36.1784 11.9224L39.0765 17.4992L41.2556 16.363L42.0735 17.9383L38.0721 20.0186L34.3506 12.8665L36.1784 11.9224Z" fill="white"/>
<path d="M47.2005 14.6066L44.4231 15.5287L44.4176 17.0052L42.3428 17.6913L42.6556 9.09571L44.7798 8.39313L50.1645 15.1006L48.0897 15.7867L47.2005 14.6066ZM46.185 13.2618L44.467 11.0059L44.4395 13.8436L46.185 13.2618Z" fill="white"/>
<path d="M55.1872 6.19754L56.6472 11.3791L58.2171 6.14266L59.8473 6.10972L61.6202 11.2803L62.8772 6.04934L65.0233 6.00543L62.8278 14.1126L60.7365 14.151L59.0953 9.50736L57.6407 14.2114L55.5495 14.2498L53.041 6.23597L55.1872 6.19754Z" fill="white"/>
<path d="M68.9035 6.85627L67.6904 14.8262L65.665 14.5188L66.8781 6.54889L68.9035 6.85627Z" fill="white"/>
<path d="M73.6074 9.73226L72.0376 15.8195L70.0506 15.309L71.6204 9.22179L69.9902 8.79915L70.4348 7.08112L75.6822 8.43688L75.2376 10.1549L73.6074 9.73226Z" fill="white"/>
<path d="M78.1306 12.6634L80.8476 13.8435L82.0881 10.9892L83.9708 11.8071L80.7598 19.2007L78.8771 18.3828L80.1999 15.331L77.4829 14.1509L76.16 17.2027L74.2773 16.3848L77.4884 8.99127L79.3711 9.80912L78.1306 12.6634Z" fill="white"/>
<path d="M90.9577 18.5091L87.1978 23.5479L85.5566 22.3239L89.3165 17.285L87.9663 16.2806L89.0256 14.8589L93.3674 18.0974L92.308 19.519L90.9577 18.5091Z" fill="white"/>
<path d="M94.0264 22.9006L96.1067 25.0083L98.3243 22.8237L99.7623 24.2838L94.0209 29.9428L92.5828 28.4828L94.9486 26.15L92.8683 24.0423L90.5025 26.375L89.0645 24.915L94.8059 19.2559L96.244 20.716L94.0264 22.9006Z" fill="white"/>
<path d="M102.545 31.0346L101.123 29.0586L100.031 29.8436L101.375 31.7098L99.9373 32.7472L98.5925 30.881L97.4673 31.6933L98.8889 33.6693L97.4508 34.7067L94.8271 31.0621L101.37 26.3526L103.994 29.9972L102.545 31.0346Z" fill="white"/>
<path d="M107.348 40.2617L106.327 38.0167L105.103 38.5766L106.036 40.624L104.422 41.3595L103.489 39.3121L100.608 40.624L99.7568 38.7577L107.096 35.4205L108.967 39.5317L107.348 40.2617Z" fill="white"/>
<path d="M110.262 43.3135L104.273 45.2236L105.02 47.5674L103.329 48.1053L101.957 43.813L109.636 41.3594L110.262 43.3135Z" fill="white"/>
<path d="M107.507 47.7159C108.1 47.6226 108.665 47.6445 109.209 47.7818C109.752 47.9135 110.246 48.144 110.685 48.4624C111.124 48.7807 111.492 49.1869 111.788 49.6809C112.085 50.1749 112.282 50.7403 112.381 51.3715C112.48 51.9972 112.458 52.5955 112.326 53.1554C112.195 53.7208 111.97 54.2203 111.646 54.6649C111.322 55.104 110.927 55.4717 110.449 55.7681C109.972 56.059 109.439 56.2512 108.846 56.3445C108.254 56.4378 107.688 56.4158 107.145 56.2786C106.601 56.1414 106.107 55.9163 105.668 55.5925C105.229 55.2686 104.861 54.857 104.565 54.363C104.269 53.8635 104.071 53.3036 103.972 52.6779C103.873 52.0466 103.89 51.4484 104.027 50.8885C104.159 50.3286 104.389 49.8291 104.708 49.39C105.032 48.9509 105.427 48.5886 105.904 48.2922C106.382 48.0013 106.914 47.8037 107.507 47.7159ZM107.836 49.8346C107.518 49.884 107.238 49.9883 106.986 50.1475C106.739 50.3067 106.53 50.4988 106.36 50.7293C106.195 50.9598 106.075 51.2178 106.009 51.4978C105.943 51.7777 105.932 52.0686 105.976 52.365C106.02 52.6614 106.118 52.9359 106.272 53.1829C106.42 53.4299 106.612 53.6439 106.843 53.8141C107.074 53.9842 107.331 54.1105 107.617 54.1873C107.902 54.2642 108.204 54.2751 108.523 54.2257C108.841 54.1763 109.121 54.0721 109.373 53.9129C109.62 53.7537 109.829 53.5561 109.999 53.3256C110.164 53.0895 110.279 52.8316 110.35 52.5516C110.416 52.2717 110.427 51.9808 110.383 51.6844C110.339 51.388 110.241 51.1135 110.087 50.8665C109.939 50.6195 109.747 50.411 109.522 50.2408C109.297 50.0706 109.039 49.9499 108.753 49.873C108.468 49.7962 108.155 49.7852 107.836 49.8346Z" fill="white"/>
<path d="M112.941 59.594L107.655 60.6149L112.744 62.6239L112.639 64.2541L107.337 65.5879L112.447 67.284L112.31 69.4246L104.417 66.5539L104.554 64.4682L109.319 63.2277L104.757 61.3834L104.895 59.2976L113.089 57.4698L112.941 59.594Z" fill="white"/>
<path d="M88.4649 29.8604H59.9994C43.379 29.8604 29.8598 43.3795 29.8598 60C29.8598 67.7064 32.7744 74.7487 37.5497 80.0839L30.3483 87.2799C29.6951 87.9331 29.6951 88.9924 30.3483 89.6456C30.6776 89.9749 31.1058 90.1341 31.5339 90.1341C31.962 90.1341 32.3902 89.9695 32.7195 89.6456L39.9209 82.4442C45.2562 87.2195 52.293 90.1341 60.0049 90.1341C76.6253 90.1341 90.1445 76.6149 90.1445 59.9945V31.5345C90.139 30.6068 89.387 29.8604 88.4649 29.8604ZM86.7853 60C86.7853 74.7706 74.7646 86.7914 59.9939 86.7914C53.2096 86.7914 47.0071 84.25 42.2867 80.0784L45.6184 76.7467H68.3645C69.2921 76.7467 70.0386 75.9947 70.0386 75.0725C70.0386 74.1504 69.2866 73.3984 68.3645 73.3984H48.9722L55.6686 66.7019H75.0665C75.9941 66.7019 76.7406 65.95 76.7406 65.0278C76.7406 64.1002 75.9886 63.3537 75.0665 63.3537H59.0169L65.7134 56.6572H78.4147C79.3423 56.6572 80.0888 55.9053 80.0888 54.9831C80.0888 54.0555 79.3368 53.309 78.4147 53.309H69.0616L79.6003 42.7703C80.2535 42.1171 80.2535 41.0577 79.6003 40.4046C78.9471 39.7514 77.8878 39.7514 77.2346 40.4046L66.6959 50.9433V41.5792C66.6959 40.6516 65.9439 39.9051 65.0218 39.9051C64.0941 39.9051 63.3476 40.657 63.3476 41.5792V54.2805L56.6512 60.977V44.9274C56.6512 43.9998 55.8992 43.2533 54.977 43.2533C54.0494 43.2533 53.3029 44.0053 53.3029 44.9274V64.3252L46.6064 71.0217V51.6239C46.6064 50.6963 45.8545 49.9498 44.9323 49.9498C44.0102 49.9498 43.2582 50.7018 43.2582 51.6239V74.37L39.9264 77.7017C35.7549 72.9758 33.2135 66.7788 33.2135 59.9945C33.2135 45.2238 45.2342 33.2031 60.0049 33.2031H86.7963V60H86.7853Z" fill="white"/>
</svg>
