<svg width="151" height="141" viewBox="0 0 151 141" fill="none" xmlns="http://www.w3.org/2000/svg">
<path fill-rule="evenodd" clip-rule="evenodd" d="M75.5 4.09052C36.2219 4.09052 4.38062 33.8231 4.38062 70.5C4.38062 107.177 36.2219 136.909 75.5 136.909C114.778 136.909 146.619 107.177 146.619 70.5C146.619 33.8231 114.778 4.09052 75.5 4.09052ZM0 70.5C0 31.5639 33.8025 0 75.5 0C117.197 0 151 31.5639 151 70.5C151 109.436 117.197 141 75.5 141C33.8025 141 0 109.436 0 70.5Z" fill="black"/>
<path fill-rule="evenodd" clip-rule="evenodd" d="M75.5011 23.8776C47.926 23.8776 25.572 44.7512 25.572 70.5001C25.572 96.249 47.926 117.123 75.5011 117.123C103.076 117.123 125.43 96.249 125.43 70.5001C125.43 44.7512 103.076 23.8776 75.5011 23.8776ZM21.1914 70.5001C21.1914 42.4921 45.5067 19.7871 75.5011 19.7871C105.495 19.7871 129.811 42.4921 129.811 70.5001C129.811 98.5081 105.495 121.213 75.5011 121.213C45.5067 121.213 21.1914 98.5081 21.1914 70.5001Z" fill="black"/>
<path d="M133.903 97.2068L135.036 94.5625L133.503 93.995L132.439 96.4909L130.422 95.7363L131.493 93.2404L129.911 92.6535L128.779 95.2978L126.762 94.5432L128.841 89.6738L137.999 93.0856L135.92 97.955L133.903 97.2068Z" fill="black"/>
<path d="M133.455 102.411L126.721 98.9416L125.236 101.457L123.337 100.477L126.065 95.8652L134.699 100.315L133.455 102.411Z" fill="black"/>
<path d="M120.284 107.023L122.535 104.321L121.541 102.902L123.219 100.89L128.703 109.313L126.984 111.376L116.893 108.487L118.571 106.475L120.284 107.023ZM122.245 107.636L125.547 108.668L123.661 105.94L122.245 107.636Z" fill="black"/>
<path d="M117.79 120.224L112.721 116.284L114.696 122.269L113.031 123.372L107.644 119.644L109.937 125.416L107.748 126.861L104.453 117.754L106.587 116.342L111.471 119.657L109.751 114.252L111.885 112.84L119.987 118.767L117.79 120.224Z" fill="black"/>
<path d="M103.162 128.583L98.9004 120.276L101.214 119.244L105.476 127.551L103.162 128.583Z" fill="black"/>
<path d="M96.3169 128.931L93.7061 122.179L96.1166 121.366L98.7274 128.119L100.71 127.448L101.449 129.357L95.0736 131.505L94.3346 129.596L96.3169 128.931Z" fill="black"/>
<path d="M89.6101 129.125L85.9771 129.783L86.7023 133.272L84.1882 133.73L82.3096 124.688L84.8237 124.23L85.5972 127.958L89.2303 127.3L88.4567 123.572L90.9708 123.114L92.8495 132.156L90.3354 132.614L89.6101 129.125Z" fill="black"/>
<path d="M72.2733 131.963L72.5565 124.785L75.119 124.875L74.8358 132.054L76.9424 132.125L76.8664 134.15L70.0977 133.918L70.1805 131.892L72.2733 131.963Z" fill="black"/>
<path d="M65.9886 129.808L62.3555 129.157L61.6372 132.646L59.1162 132.195L60.9742 123.152L63.4952 123.604L62.7285 127.332L66.3615 127.983L67.1282 124.255L69.6492 124.707L67.7913 133.749L65.2702 133.297L65.9886 129.808Z" fill="black"/>
<path d="M51.45 127.558L54.3164 128.532L54.8828 127.087L52.1753 126.171L52.9143 124.269L55.6218 125.185L56.202 123.695L53.3356 122.721L54.0747 120.818L59.3515 122.611L55.981 131.267L50.7041 129.474L51.45 127.558Z" fill="black"/>
<path d="M39.998 121.759L42.6295 123.268L43.4928 121.959L41.0962 120.585L42.2358 118.857L44.6325 120.231L46.6631 117.154L48.8457 118.412L43.6793 126.255L38.8652 123.488L39.998 121.759Z" fill="black"/>
<path d="M34.8662 120.643L39.6596 115.025L37.256 113.239L38.6097 111.652L43.0163 114.935L36.8692 122.139L34.8662 120.643Z" fill="black"/>
<path d="M34.6032 114.665C34.0645 115.123 33.4636 115.458 32.8143 115.671C32.1651 115.884 31.502 115.967 30.8321 115.935C30.1621 115.903 29.5059 115.735 28.8567 115.445C28.2075 115.148 27.6204 114.729 27.0747 114.174C26.5429 113.626 26.1492 113.039 25.8936 112.407C25.6381 111.775 25.5207 111.143 25.5414 110.518C25.5621 109.886 25.7141 109.279 26.0042 108.699C26.2873 108.112 26.7017 107.59 27.2474 107.132C27.7861 106.674 28.387 106.338 29.0363 106.126C29.6855 105.913 30.3486 105.829 31.0186 105.868C31.6954 105.906 32.3516 106.074 33.0008 106.371C33.6501 106.667 34.2441 107.086 34.7759 107.635C35.3146 108.189 35.7152 108.783 35.9639 109.408C36.2194 110.034 36.3299 110.666 36.3023 111.292C36.2747 111.917 36.1227 112.523 35.8327 113.11C35.5633 113.684 35.1489 114.207 34.6032 114.665ZM32.8005 112.814C33.0906 112.569 33.3116 112.291 33.4567 111.975C33.6017 111.666 33.6777 111.343 33.6915 111.014C33.7053 110.685 33.6432 110.363 33.5188 110.047C33.3945 109.731 33.2011 109.441 32.9525 109.183C32.6969 108.925 32.4137 108.718 32.0822 108.576C31.7576 108.428 31.4192 108.344 31.06 108.318C30.7077 108.293 30.3555 108.338 30.0101 108.441C29.6648 108.544 29.3471 108.725 29.057 108.97C28.7669 109.215 28.5459 109.492 28.4008 109.808C28.2558 110.118 28.1798 110.44 28.1729 110.769C28.166 111.098 28.2282 111.427 28.3525 111.743C28.4768 112.059 28.6702 112.349 28.9189 112.607C29.1744 112.865 29.4576 113.072 29.7891 113.213C30.1137 113.362 30.4522 113.446 30.8044 113.465C31.1567 113.484 31.502 113.446 31.8474 113.336C32.1927 113.239 32.5104 113.059 32.8005 112.814Z" fill="black"/>
<path d="M20.8037 106.475L25.5418 102.192L18.9596 103.385L17.965 101.721L22.5097 97.1164L16.1208 98.6256L14.8154 96.4392L24.858 94.3496L26.1358 96.4844L22.0884 100.664L28.0214 99.6446L29.2992 101.779L22.116 108.667L20.8037 106.475Z" fill="black"/>
<path d="M15.6169 81.703L11.0377 85.8693L10.5128 83.038L12.9302 80.9032L9.89113 79.6585L9.36621 76.8271L15.1818 79.3295L19.9821 78.5556L20.4241 80.929L15.6169 81.703Z" fill="black"/>
<path d="M14.3538 75.8597C13.601 75.8726 12.8965 75.7566 12.2403 75.5115C11.5842 75.2664 11.0109 74.9246 10.5205 74.4796C10.0301 74.0345 9.64332 73.5057 9.35323 72.8801C9.07005 72.2545 8.9181 71.5708 8.91119 70.8163C8.89738 70.0681 9.0217 69.378 9.28416 68.746C9.54663 68.1139 9.9196 67.5657 10.3962 67.1014C10.8727 66.637 11.4322 66.2758 12.0815 66.0114C12.7307 65.747 13.4283 65.6115 14.1811 65.5986C14.934 65.5857 15.6385 65.7018 16.2947 65.9469C16.9508 66.192 17.5241 66.5402 18.0145 66.9853C18.5049 67.4303 18.8916 67.972 19.1817 68.5976C19.4718 69.2232 19.6169 69.9133 19.6238 70.655C19.6376 71.4096 19.5133 72.0997 19.2508 72.7317C18.9883 73.3638 18.6154 73.9056 18.1388 74.3635C17.6622 74.8214 17.1028 75.1825 16.4535 75.447C15.8043 75.7114 15.1067 75.8468 14.3538 75.8597ZM14.3124 73.338C14.713 73.3315 15.0859 73.2542 15.4244 73.1123C15.7628 72.9704 16.0529 72.7769 16.3016 72.5318C16.5502 72.2932 16.7367 72.0094 16.8748 71.6934C17.0061 71.3774 17.0751 71.042 17.0682 70.6873C17.0613 70.3325 16.9853 70.0036 16.8403 69.6876C16.6953 69.3716 16.495 69.1007 16.2394 68.8621C15.9838 68.6234 15.6868 68.4364 15.3415 68.301C14.9962 68.1655 14.6232 68.101 14.2226 68.1075C13.822 68.1139 13.449 68.1913 13.1106 68.3332C12.7721 68.4751 12.4821 68.675 12.2334 68.9201C11.9848 69.1652 11.7983 69.449 11.6601 69.765C11.5289 70.081 11.4598 70.4164 11.4667 70.7711C11.4736 71.1258 11.5496 71.4548 11.6947 71.7708C11.8397 72.0868 12.04 72.3577 12.2956 72.5899C12.5511 72.822 12.8481 73.0091 13.1935 73.1445C13.5319 73.28 13.9049 73.3444 14.3124 73.338Z" fill="black"/>
<path d="M14.7959 58.9999L15.7491 54.3047C16.2809 54.4014 16.7505 54.5046 17.1788 54.6207C17.6001 54.7368 17.9869 54.8916 18.3322 55.0722C18.8157 55.3366 19.2301 55.6462 19.5755 56.0073C19.9208 56.3685 20.1833 56.7684 20.3767 57.207C20.5632 57.6455 20.6875 58.1099 20.7289 58.6C20.7773 59.0902 20.7496 59.5933 20.6391 60.1092C20.4941 60.8187 20.2385 61.4443 19.8656 61.9796C19.4926 62.5149 19.0298 62.9534 18.4842 63.2953C17.9385 63.6306 17.3169 63.8628 16.6193 63.9789C15.9217 64.095 15.1827 64.0885 14.4022 63.9467C13.6286 63.8112 12.9379 63.5661 12.3371 63.2243C11.7362 62.8825 11.2458 62.4568 10.8728 61.9538C10.4998 61.4507 10.2443 60.8767 10.113 60.2382C9.9818 59.5997 9.98871 58.9096 10.1338 58.1808C10.3271 57.2328 10.7208 56.4395 11.3148 55.801C11.9088 55.1625 12.7238 54.7175 13.7461 54.4659L14.3055 56.8909C13.7184 57.0006 13.2695 57.207 12.9656 57.4972C12.6617 57.7874 12.4614 58.1486 12.3785 58.5742C12.3094 58.929 12.3163 59.2643 12.3992 59.5804C12.4821 59.8964 12.641 60.1802 12.8689 60.4317C13.0968 60.6832 13.3869 60.9025 13.7391 61.0895C14.0914 61.2701 14.5058 61.4056 14.9755 61.4894C15.3968 61.5668 15.8043 61.5861 16.1842 61.5475C16.5641 61.5088 16.9094 61.4185 17.2133 61.2637C17.5172 61.1089 17.7728 60.8961 17.98 60.6252C18.1872 60.3543 18.3322 60.0189 18.4082 59.6255C18.4566 59.3933 18.4704 59.1611 18.4566 58.9354C18.4427 58.7097 18.3875 58.4968 18.2977 58.3034C18.2079 58.1099 18.0698 57.9357 17.8902 57.7874C17.7106 57.6391 17.4758 57.5165 17.1995 57.4262L16.8058 59.3675L14.7959 58.9999Z" fill="black"/>
<path d="M22.1665 48.6435L20.8542 51.8618L22.2908 52.9647L21.3101 55.3639L13.1807 48.6887L14.1822 46.2314L25.0052 46.3088L24.0245 48.708L22.1665 48.6435ZM20.053 48.5726L16.4822 48.4565L19.2242 50.5913L20.053 48.5726Z" fill="black"/>
<path d="M19.167 36.8526L21.3427 33.8923C21.8607 33.1893 22.4339 32.7765 23.0763 32.6476C23.7117 32.5186 24.3817 32.6798 25.0724 33.1248C25.4937 33.3957 25.7907 33.6859 25.9703 34.0019C26.1429 34.318 26.2258 34.6791 26.212 35.0855C26.4814 34.8404 26.7507 34.6533 27.0132 34.5373C27.2826 34.4147 27.5519 34.3502 27.8213 34.3373C28.0907 34.3244 28.3531 34.3631 28.6156 34.4534C28.8781 34.5437 29.1336 34.6662 29.3823 34.8275C29.776 35.079 30.073 35.3628 30.2871 35.6853C30.5012 36.0077 30.6255 36.3431 30.667 36.7043C30.7084 37.0654 30.66 37.4395 30.5219 37.8265C30.3838 38.2199 30.1697 38.6133 29.8727 39.0196L27.5243 42.2121L19.167 36.8526ZM23.912 36.9687L24.1814 36.6011C24.6372 35.9819 24.5958 35.4982 24.0571 35.15C23.5183 34.8017 23.021 34.9436 22.5583 35.5627L22.2889 35.9303L23.912 36.9687ZM27.3033 39.1486L27.621 38.7101C27.9871 38.2135 28.1805 37.8071 28.2012 37.504C28.2219 37.2009 28.0769 36.9429 27.7661 36.743C27.4553 36.543 27.1513 36.5043 26.8544 36.6333C26.5574 36.7623 26.2189 37.0719 25.8529 37.575L25.5351 38.0135L27.3033 39.1486Z" fill="black"/>
<path d="M30.274 31.2289L23.9473 30.3583L26.0401 28.2493L29.3277 28.7459L28.5403 25.734L30.6331 23.625L32.0283 29.4618L35.5992 32.5511L33.8448 34.3182L30.274 31.2289Z" fill="black"/>
<path d="M42.0714 18.1751L39.5504 19.8004L40.5104 21.1032L42.8933 19.5682L44.1642 21.2838L41.7813 22.8188L42.7759 24.1602L45.3038 22.535L46.5747 24.2505L41.9264 27.2431L36.166 19.4457L40.8144 16.4531L42.0714 18.1751Z" fill="black"/>
<path d="M45.5246 14.0088L49.1714 20.5615L51.9135 19.2264L52.9426 21.0774L47.9075 23.5218L43.2246 15.1181L45.5246 14.0088Z" fill="black"/>
<path d="M59.3938 17.1631L55.899 18.2466L55.8921 19.9815L53.2812 20.7877L53.6749 10.6878L56.3479 9.8623L63.1236 17.7436L60.5128 18.5497L59.3938 17.1631ZM58.1161 15.583L55.9542 12.9323L55.9197 16.2666L58.1161 15.583Z" fill="black"/>
<path d="M69.4438 7.28237L71.281 13.3707L73.2564 7.21788L75.3077 7.17918L77.5386 13.2546L79.1203 7.10824L81.8209 7.05664L79.0581 16.5825L76.4266 16.6277L74.3615 11.1714L72.5311 16.6986L69.8996 16.7438L66.7432 7.32752L69.4438 7.28237Z" fill="black"/>
<path d="M86.703 8.05551L85.1766 17.4201L82.6279 17.059L84.1543 7.69434L86.703 8.05551Z" fill="black"/>
<path d="M92.6229 11.4354L90.6476 18.5879L88.1473 17.9881L90.1226 10.8356L88.0713 10.339L88.6307 8.32031L95.2337 9.91333L94.6743 11.932L92.6229 11.4354Z" fill="black"/>
<path d="M98.3145 14.8792L101.733 16.2658L103.294 12.9121L105.663 13.873L101.623 22.5605L99.2538 21.5995L100.918 18.0136L97.4994 16.627L95.8349 20.2129L93.4658 19.2519L97.5063 10.5645L99.8754 11.5254L98.3145 14.8792Z" fill="black"/>
<path d="M114.455 21.7479L109.723 27.6685L107.658 26.2303L112.389 20.3097L110.69 19.1294L112.023 17.459L117.487 21.2642L116.154 22.9346L114.455 21.7479Z" fill="black"/>
<path d="M118.316 26.9084L120.934 29.385L123.724 26.8181L125.534 28.5337L118.309 35.1831L116.5 33.4675L119.476 30.7265L116.859 28.2499L113.882 30.9909L112.072 29.2754L119.297 22.626L121.106 24.3415L118.316 26.9084Z" fill="black"/>
<path d="M129.035 36.4653L127.246 34.1435L125.872 35.0657L127.564 37.2586L125.755 38.4775L124.062 36.2847L122.646 37.2392L124.435 39.561L122.626 40.78L119.324 36.4975L127.557 30.9639L130.859 35.2463L129.035 36.4653Z" fill="black"/>
<path d="M135.08 47.3066L133.795 44.6688L132.255 45.3266L133.429 47.7323L131.398 48.5965L130.224 46.1908L126.598 47.7323L125.527 45.5394L134.762 41.6182L137.117 46.4488L135.08 47.3066Z" fill="black"/>
<path d="M138.746 50.8937L131.211 53.1381L132.15 55.892L130.023 56.5241L128.296 51.4806L137.959 48.5977L138.746 50.8937Z" fill="black"/>
<path d="M135.279 56.0656C136.025 55.956 136.737 55.9817 137.421 56.143C138.104 56.2978 138.726 56.5687 139.278 56.9427C139.831 57.3168 140.294 57.794 140.667 58.3745C141.04 58.955 141.288 59.6193 141.413 60.3609C141.537 61.0962 141.509 61.7992 141.344 62.457C141.178 63.1213 140.895 63.7082 140.487 64.2306C140.08 64.7466 139.582 65.1787 138.981 65.527C138.381 65.8688 137.711 66.0945 136.965 66.2042C136.219 66.3138 135.507 66.288 134.824 66.1268C134.14 65.9655 133.518 65.7011 132.966 65.3206C132.413 64.9401 131.95 64.4564 131.577 63.8759C131.204 63.289 130.956 62.6312 130.831 61.8959C130.707 61.1542 130.728 60.4512 130.9 59.7934C131.066 59.1355 131.356 58.5486 131.757 58.0327C132.164 57.5167 132.662 57.0911 133.263 56.7428C133.863 56.401 134.533 56.1688 135.279 56.0656ZM135.694 58.5551C135.293 58.6131 134.941 58.7357 134.623 58.9227C134.312 59.1097 134.05 59.3355 133.836 59.6064C133.629 59.8772 133.477 60.1804 133.394 60.5093C133.311 60.8382 133.297 61.18 133.352 61.5283C133.408 61.8766 133.532 62.199 133.725 62.4893C133.912 62.7795 134.154 63.031 134.444 63.231C134.734 63.4309 135.058 63.5792 135.418 63.6695C135.777 63.7598 136.157 63.7727 136.557 63.7147C136.958 63.6566 137.31 63.5341 137.628 63.3471C137.939 63.16 138.201 62.9278 138.415 62.657C138.622 62.3796 138.767 62.0765 138.857 61.7476C138.94 61.4187 138.954 61.0768 138.899 60.7286C138.843 60.3803 138.719 60.0578 138.526 59.7676C138.339 59.4774 138.097 59.2323 137.814 59.0324C137.531 58.8324 137.206 58.6905 136.847 58.6002C136.488 58.5099 136.094 58.497 135.694 58.5551Z" fill="black"/>
<path d="M142.118 70.0233L135.467 71.2229L141.869 73.5834L141.738 75.4989L135.066 77.0661L141.496 79.059L141.324 81.5743L131.392 78.2012L131.564 75.7504L137.559 74.2928L131.82 72.1258L131.992 69.675L142.304 67.5273L142.118 70.0233Z" fill="black"/>
<path d="M111.319 35.0859H75.4997C54.5856 35.0859 37.574 50.971 37.574 70.5C37.574 79.5551 41.2415 87.8297 47.2505 94.0986L38.1887 102.554C37.3668 103.321 37.3668 104.566 38.1887 105.334C38.6031 105.721 39.1419 105.908 39.6806 105.908C40.2193 105.908 40.7581 105.714 41.1725 105.334L50.2343 96.8719C56.9478 102.483 65.8024 105.908 75.5066 105.908C96.4206 105.908 113.432 90.0226 113.432 70.4936V37.053C113.425 35.9631 112.479 35.0859 111.319 35.0859ZM109.205 70.5C109.205 87.8555 94.0792 101.98 75.4928 101.98C66.9559 101.98 59.1511 98.9938 53.2112 94.0922L57.4037 90.1773H86.0258C87.193 90.1773 88.1324 89.2938 88.1324 88.2103C88.1324 87.1267 87.1861 86.2432 86.0258 86.2432H61.6238L70.0502 78.3748H94.4591C95.6264 78.3748 96.5657 77.4912 96.5657 76.4077C96.5657 75.3178 95.6194 74.4406 94.4591 74.4406H74.2634L82.6898 66.5723H98.6723C99.8395 66.5723 100.779 65.6887 100.779 64.6052C100.779 63.5152 99.8326 62.6381 98.6723 62.6381H86.903L100.164 50.2551C100.986 49.4876 100.986 48.2429 100.164 47.4754C99.3423 46.7079 98.0092 46.7079 97.1873 47.4754L83.9261 59.8584V48.8556C83.9261 47.7656 82.9798 46.8885 81.8195 46.8885C80.6522 46.8885 79.7129 47.7721 79.7129 48.8556V63.7797L71.2865 71.648V52.7897C71.2865 51.6998 70.3402 50.8227 69.1799 50.8227C68.0126 50.8227 67.0733 51.7062 67.0733 52.7897V75.5822L58.6469 83.4505V60.6581C58.6469 59.5681 57.7007 58.691 56.5403 58.691C55.3799 58.691 54.4337 59.5746 54.4337 60.6581V87.3847L50.2412 91.2996C44.992 85.7466 41.7941 78.4651 41.7941 70.4936C41.7941 53.138 56.9202 39.0137 75.5066 39.0137H109.219V70.5H109.205Z" fill="black"/>
</svg>
