<svg width="121" height="27" viewBox="0 0 121 27" fill="none" xmlns="http://www.w3.org/2000/svg">
<path d="M9.57629 3.87192H1.54379C0.756289 3.87192 0.0869141 3.30709 0.0869141 2.60107C0.0869141 1.89504 0.756289 1.29492 1.54379 1.29492H20.7785C21.566 1.29492 22.2354 1.89504 22.2354 2.60107C22.2354 3.30709 21.566 3.87192 20.7785 3.87192H12.7263V24.8585C12.7263 25.6352 12.0175 26.2706 11.1513 26.2706C10.285 26.2706 9.57629 25.6352 9.57629 24.8585V3.87192Z" fill="black"/>
<path d="M24.7559 13.7737V13.7031C24.7559 6.85466 30.4849 0.871094 38.9112 0.871094C47.3374 0.871094 52.9877 6.80171 52.9877 13.6325V13.7031C52.9877 20.5516 47.2587 26.5351 38.8324 26.5351C30.4062 26.5351 24.7559 20.6045 24.7559 13.7737ZM49.759 13.7737V13.7031C49.759 8.07256 45.1718 3.44809 38.8324 3.44809C32.493 3.44809 27.9846 7.9843 27.9846 13.6325V13.7031C27.9846 19.3337 32.5718 23.9581 38.9112 23.9581C45.2506 23.9581 49.759 19.4043 49.759 13.7737Z" fill="black"/>
<path d="M59.6025 2.5662C59.6025 1.82488 60.3113 1.18945 61.1382 1.18945H61.4925C62.1619 1.18945 62.6344 1.50716 62.9494 1.93078L72.8325 15.257L82.7156 1.93078C83.0306 1.47186 83.5425 1.18945 84.1725 1.18945H84.5269C85.3538 1.18945 86.0625 1.82488 86.0625 2.5662V24.8766C86.0625 25.6532 85.3538 26.2887 84.5269 26.2887C83.6606 26.2887 82.9519 25.6179 82.9519 24.8766V6.36109L74.0925 18.0282C73.7381 18.4871 73.3444 18.7342 72.7931 18.7342C72.2419 18.7342 71.8088 18.4871 71.4544 18.0282L62.6344 6.39639V24.9119C62.6344 25.6885 61.965 26.2887 61.0988 26.2887C60.2719 26.2887 59.6025 25.6885 59.6025 24.9119V2.5662Z" fill="black"/>
<path d="M92.7168 13.7737V13.7031C92.7168 6.85466 98.4459 0.871094 106.872 0.871094C115.298 0.871094 120.949 6.80171 120.949 13.6325V13.7031C120.949 20.5516 115.22 26.5351 106.793 26.5351C98.3671 26.5351 92.7168 20.6045 92.7168 13.7737ZM117.72 13.7737V13.7031C117.72 8.07256 113.133 3.44809 106.793 3.44809C100.454 3.44809 95.9455 7.9843 95.9455 13.6325V13.7031C95.9455 19.3337 100.533 23.9581 106.872 23.9581C113.212 23.9581 117.72 19.4043 117.72 13.7737Z" fill="black"/>
</svg>
