<svg width="467" height="565" viewBox="0 0 467 565" fill="none" xmlns="http://www.w3.org/2000/svg">
<path d="M15.7692 565H283.019C439.061 565 565.987 438.272 565.987 282.474C565.987 210.235 538.623 144.221 493.789 94.2096L561.401 26.7553C567.533 20.6324 567.533 10.7021 561.401 4.57928C558.309 1.49213 554.289 0 550.27 0C546.25 0 542.23 1.54358 539.138 4.57928L471.527 72.085C421.437 27.3213 355.372 0 282.968 0C126.926 0 0 126.728 0 282.526V549.307C0.0515747 558.002 7.11163 565 15.7692 565ZM31.5383 282.474C31.5383 144.016 144.396 31.3346 283.071 31.3346C346.766 31.3346 404.998 55.1571 449.316 94.261L418.036 125.493H204.483C195.774 125.493 188.765 132.542 188.765 141.186C188.765 149.83 195.826 156.879 204.483 156.879H386.549L323.679 219.651H141.561C132.852 219.651 125.844 226.7 125.844 235.344C125.844 244.039 132.904 251.037 141.561 251.037H292.244L229.373 313.809H110.126C101.417 313.809 94.4085 320.858 94.4085 329.502C94.4085 338.197 101.469 345.195 110.126 345.195H197.938L98.995 443.984C92.8625 450.107 92.8625 460.037 98.995 466.16C105.127 472.283 115.073 472.283 121.206 466.16L220.149 367.371V455.149C220.149 463.844 227.209 470.842 235.867 470.842C244.576 470.842 251.584 463.793 251.584 455.149V336.088L314.454 273.316V423.763C314.454 432.458 321.514 439.456 330.172 439.456C338.881 439.456 345.89 432.407 345.89 423.763V241.93L408.76 179.158V360.991C408.76 369.686 415.82 376.684 424.477 376.684C433.135 376.684 440.195 369.635 440.195 360.991V147.772L471.476 116.54C510.641 160.841 534.5 218.93 534.5 282.526C534.5 420.984 421.643 533.665 282.968 533.665H31.4352V282.474H31.5383Z" fill="white"/>
</svg>
