<svg width="42" height="40" viewBox="0 0 42 40" fill="none" xmlns="http://www.w3.org/2000/svg">
<circle cx="21.5" cy="20" r="20" fill="#7CCC7A"/>
<path d="M39.3935 0H20.5027C9.47277 0 0.500911 8.97186 0.500911 20.0018C0.500911 25.1161 2.43516 29.7896 5.60427 33.3303L0.825107 38.1058C0.391631 38.5393 0.391631 39.2423 0.825107 39.6758C1.04367 39.8944 1.32779 40 1.61192 40C1.89605 40 2.18017 39.8907 2.39873 39.6758L7.1779 34.8966C10.7186 38.0658 15.3884 40 20.5064 40C31.5363 40 40.5082 31.0281 40.5082 19.9982V1.11101C40.5046 0.495401 40.0055 0 39.3935 0ZM38.2789 20.0018C38.2789 29.8042 30.3015 37.7816 20.4991 37.7816C15.9968 37.7816 11.8806 36.0951 8.74788 33.3267L10.959 31.1156H26.0541C26.6697 31.1156 27.1651 30.6165 27.1651 30.0046C27.1651 29.3926 26.6661 28.8935 26.0541 28.8935H13.1846L17.6287 24.4495H30.5018C31.1174 24.4495 31.6128 23.9505 31.6128 23.3385C31.6128 22.7229 31.1138 22.2275 30.5018 22.2275H19.8507L24.2947 17.7834H32.7238C33.3394 17.7834 33.8349 17.2844 33.8349 16.6724C33.8349 16.0568 33.3358 15.5614 32.7238 15.5614H26.5168L33.5107 8.56753C33.9441 8.13405 33.9441 7.43102 33.5107 6.99754C33.0772 6.56407 32.3741 6.56407 31.9407 6.99754L24.9468 13.9914V7.77707C24.9468 7.16146 24.4477 6.66606 23.8358 6.66606C23.2202 6.66606 22.7248 7.1651 22.7248 7.77707V16.2062L18.2807 20.6502V9.99909C18.2807 9.38348 17.7817 8.88808 17.1697 8.88808C16.5541 8.88808 16.0587 9.38712 16.0587 9.99909V22.8722L11.6147 27.3163V14.4431C11.6147 13.8275 11.1156 13.3321 10.5036 13.3321C9.89168 13.3321 9.39263 13.8312 9.39263 14.4431V29.5383L7.18154 31.7494C4.41312 28.6131 2.72657 24.5005 2.72657 19.9982C2.72657 10.1958 10.704 2.21838 20.5064 2.21838H38.2862V20.0018H38.2789Z" fill="black"/>
</svg>
